<?xml version="1.0" encoding="UTF-8" standalone="no"?>
<!DOCTYPE svg PUBLIC "-//W3C//DTD SVG 1.1//EN" "http://www.w3.org/Graphics/SVG/1.1/DTD/svg11.dtd">

<!-- Created with Vectornator (http://vectornator.io/) -->
<svg height="100%" stroke-miterlimit="10" style="fill-rule:nonzero;clip-rule:evenodd;stroke-linecap:round;stroke-linejoin:round;" version="1.1" viewBox="0 0 500 500" width="100%" xml:space="preserve" xmlns="http://www.w3.org/2000/svg" xmlns:vectornator="http://vectornator.io" xmlns:xlink="http://www.w3.org/1999/xlink">
<metadata>
<vectornator:setting key="IsTimeLapseWatermarkDisabled" value="false"/>
<vectornator:setting key="UndoHistoryDisabled" value="true"/>
<vectornator:setting key="VNDimensionsVisible" value="true"/>
<vectornator:setting key="VNSnapToGuides" value="false"/>
<vectornator:setting key="WDCMYKEnabledKey" value="false"/>
<vectornator:setting key="WDDisplayWhiteBackground" value="false"/>
<vectornator:setting key="WDDynamicGuides" value="true"/>
<vectornator:setting key="WDGuidesVisible" value="true"/>
<vectornator:setting key="WDIsolateActiveLayer" value="false"/>
<vectornator:setting key="WDOutlineMode" value="false"/>
<vectornator:setting key="WDRulersVisible" value="true"/>
<vectornator:setting key="WDSnapToEdges" value="false"/>
<vectornator:setting key="WDSnapToGrid" value="false"/>
<vectornator:setting key="WDSnapToPoints" value="false"/>
<vectornator:setting key="WDUnits" value="Millimeters"/>
</metadata>
<defs>
<clipPath id="TextBounds">
<rect height="41.98" width="177.84" x="74.8243" y="341.91"/>
</clipPath>
<clipPath id="TextBounds_2">
<rect height="41.98" width="223.81" x="232.304" y="341.91"/>
</clipPath>
</defs>
<g id="Layer-1" vectornator:layerName="Layer 1">
<path d="M97.7389 328.735L324.539 172.81" fill="#7d9ec0" fill-rule="evenodd" opacity="1" stroke="#7d9ec0" stroke-linecap="round" stroke-linejoin="round" stroke-width="3"/>
<path d="M166.598 305.017L393.398 149.092" fill="none" fill-rule="evenodd" opacity="1" stroke="#ebfffe" stroke-linecap="round" stroke-linejoin="round" stroke-width="3"/>
<path d="M282.014 116.11L324.539 172.81" fill="#7d9ec0" fill-rule="evenodd" opacity="1" stroke="#7d9ec0" stroke-linecap="round" stroke-linejoin="round" stroke-width="3"/>
<path d="M436.593 206.04L394.068 149.34" fill="none" fill-rule="evenodd" opacity="1" stroke="#ebfffe" stroke-linecap="round" stroke-linejoin="round" stroke-width="3"/>
<path d="M295.189 285.21L216.849 172.269" fill="none" fill-rule="evenodd" opacity="1" stroke="#ebfffe" stroke-linecap="round" stroke-linejoin="round" stroke-width="3"/>
<g fill="#7d9ec0" opacity="1" stroke="none">
<path clip-path="url(#TextBounds)" d="M107.974 354.09C107.514 353.45 106.924 352.935 106.204 352.545C105.484 352.155 104.614 351.96 103.594 351.96C103.074 351.96 102.544 352.04 102.004 352.2C101.464 352.36 100.974 352.605 100.534 352.935C100.094 353.265 99.7391 353.68 99.4691 354.18C99.1991 354.68 99.0641 355.27 99.0641 355.95C99.0641 356.63 99.1941 357.19 99.4541 357.63C99.7141 358.07 100.059 358.445 100.489 358.755C100.919 359.065 101.409 359.32 101.959 359.52C102.509 359.72 103.084 359.92 103.684 360.12C104.424 360.36 105.169 360.62 105.919 360.9C106.669 361.18 107.344 361.545 107.944 361.995C108.544 362.445 109.034 363.015 109.414 363.705C109.794 364.395 109.984 365.27 109.984 366.33C109.984 367.39 109.779 368.305 109.369 369.075C108.959 369.845 108.429 370.48 107.779 370.98C107.129 371.48 106.389 371.85 105.559 372.09C104.729 372.33 103.894 372.45 103.054 372.45C102.414 372.45 101.774 372.385 101.134 372.255C100.494 372.125 99.8841 371.93 99.3041 371.67C98.7241 371.41 98.1841 371.08 97.6841 370.68C97.1841 370.28 96.7441 369.82 96.3641 369.3L98.2241 367.92C98.6841 368.68 99.3291 369.315 100.159 369.825C100.989 370.335 101.964 370.59 103.084 370.59C103.624 370.59 104.174 370.505 104.734 370.335C105.294 370.165 105.799 369.905 106.249 369.555C106.699 369.205 107.069 368.775 107.359 368.265C107.649 367.755 107.794 367.16 107.794 366.48C107.794 365.74 107.649 365.125 107.359 364.635C107.069 364.145 106.684 363.735 106.204 363.405C105.724 363.075 105.174 362.8 104.554 362.58C103.934 362.36 103.284 362.14 102.604 361.92C101.904 361.7 101.214 361.45 100.534 361.17C99.8541 360.89 99.2441 360.525 98.7041 360.075C98.1641 359.625 97.7291 359.07 97.3991 358.41C97.0691 357.75 96.9041 356.94 96.9041 355.98C96.9041 354.96 97.1091 354.08 97.5191 353.34C97.9291 352.6 98.4641 351.99 99.1241 351.51C99.7841 351.03 100.514 350.68 101.314 350.46C102.114 350.24 102.904 350.13 103.684 350.13C105.124 350.13 106.354 350.385 107.374 350.895C108.394 351.405 109.164 352.01 109.684 352.71L107.974 354.09Z" fill-rule="evenodd"/>
<path clip-path="url(#TextBounds)" d="M125.764 369.99L137.134 369.99L137.134 371.91L123.604 371.91L123.604 350.67L136.774 350.67L136.774 352.59L125.764 352.59L125.764 359.91L136.054 359.91L136.054 361.8L125.764 361.8L125.764 369.99Z" fill-rule="evenodd"/>
<path clip-path="url(#TextBounds)" d="M162.484 352.65L153.934 371.91L151.504 371.91L160.294 352.59L149.884 352.59L149.884 350.67L162.484 350.67L162.484 352.65Z" fill-rule="evenodd"/>
<path clip-path="url(#TextBounds)" d="M178.924 369.99L190.294 369.99L190.294 371.91L176.764 371.91L176.764 350.67L189.934 350.67L189.934 352.59L178.924 352.59L178.924 359.91L189.214 359.91L189.214 361.8L178.924 361.8L178.924 369.99Z" fill-rule="evenodd"/>
<path clip-path="url(#TextBounds)" d="M218.584 368.76L218.644 368.76L218.644 350.67L220.804 350.67L220.804 371.91L218.104 371.91L205.744 353.64L205.684 353.64L205.684 371.91L203.524 371.91L203.524 350.67L206.224 350.67L218.584 368.76Z" fill-rule="evenodd"/>
</g>
<g fill="#ebfffe" opacity="1" stroke="none">
<path clip-path="url(#TextBounds_2)" d="M242.284 371.91L240.124 371.91L240.124 350.67L252.934 350.67L252.934 352.59L242.284 352.59L242.284 359.97L252.184 359.97L252.184 361.86L242.284 361.86L242.284 371.91Z" fill-rule="evenodd"/>
<path clip-path="url(#TextBounds_2)" d="M286.984 361.29C286.984 362.91 286.704 364.4 286.144 365.76C285.584 367.12 284.809 368.295 283.819 369.285C282.829 370.275 281.659 371.05 280.309 371.61C278.959 372.17 277.494 372.45 275.914 372.45C274.334 372.45 272.869 372.17 271.519 371.61C270.169 371.05 268.999 370.275 268.009 369.285C267.019 368.295 266.244 367.12 265.684 365.76C265.124 364.4 264.844 362.91 264.844 361.29C264.844 359.67 265.124 358.18 265.684 356.82C266.244 355.46 267.019 354.285 268.009 353.295C268.999 352.305 270.169 351.53 271.519 350.97C272.869 350.41 274.334 350.13 275.914 350.13C277.494 350.13 278.959 350.41 280.309 350.97C281.659 351.53 282.829 352.305 283.819 353.295C284.809 354.285 285.584 355.46 286.144 356.82C286.704 358.18 286.984 359.67 286.984 361.29ZM284.704 361.29C284.704 360.05 284.504 358.87 284.104 357.75C283.704 356.63 283.124 355.645 282.364 354.795C281.604 353.945 280.679 353.27 279.589 352.77C278.499 352.27 277.274 352.02 275.914 352.02C274.554 352.02 273.329 352.27 272.239 352.77C271.149 353.27 270.224 353.945 269.464 354.795C268.704 355.645 268.124 356.63 267.724 357.75C267.324 358.87 267.124 360.05 267.124 361.29C267.124 362.53 267.324 363.71 267.724 364.83C268.124 365.95 268.704 366.93 269.464 367.77C270.224 368.61 271.149 369.28 272.239 369.78C273.329 370.28 274.554 370.53 275.914 370.53C277.274 370.53 278.499 370.28 279.589 369.78C280.679 369.28 281.604 368.61 282.364 367.77C283.124 366.93 283.704 365.95 284.104 364.83C284.504 363.71 284.704 362.53 284.704 361.29Z" fill-rule="evenodd"/>
<path clip-path="url(#TextBounds_2)" d="M302.644 371.91L300.484 371.91L300.484 350.67L306.724 350.67C307.764 350.67 308.729 350.77 309.619 350.97C310.509 351.17 311.279 351.495 311.929 351.945C312.579 352.395 313.084 352.98 313.444 353.7C313.804 354.42 313.984 355.3 313.984 356.34C313.984 357.12 313.844 357.83 313.564 358.47C313.284 359.11 312.904 359.665 312.424 360.135C311.944 360.605 311.374 360.98 310.714 361.26C310.054 361.54 309.334 361.72 308.554 361.8L314.764 371.91L312.124 371.91L306.244 361.98L302.644 361.98L302.644 371.91ZM302.644 360.12L306.394 360.12C308.134 360.12 309.474 359.805 310.414 359.175C311.354 358.545 311.824 357.6 311.824 356.34C311.824 355.64 311.694 355.05 311.434 354.57C311.174 354.09 310.814 353.7 310.354 353.4C309.894 353.1 309.334 352.88 308.674 352.74C308.014 352.6 307.284 352.53 306.484 352.53L302.644 352.53L302.644 360.12Z" fill-rule="evenodd"/>
<path clip-path="url(#TextBounds_2)" d="M332.584 368.94L332.644 368.94L337.954 350.67L340.534 350.67L345.844 368.94L345.904 368.94L351.094 350.67L353.374 350.67L347.104 371.91L344.584 371.91L339.244 353.67L339.184 353.67L333.844 371.91L331.324 371.91L325.054 350.67L327.334 350.67L332.584 368.94Z" fill-rule="evenodd"/>
<path clip-path="url(#TextBounds_2)" d="M365.104 371.91L362.734 371.91L371.914 350.67L374.014 350.67L383.134 371.91L380.734 371.91L378.394 366.33L367.414 366.33L365.104 371.91ZM368.224 364.35L377.584 364.35L372.904 353.07L368.224 364.35Z" fill-rule="evenodd"/>
<path clip-path="url(#TextBounds_2)" d="M397.414 371.91L395.254 371.91L395.254 350.67L401.494 350.67C402.534 350.67 403.499 350.77 404.389 350.97C405.279 351.17 406.049 351.495 406.699 351.945C407.349 352.395 407.854 352.98 408.214 353.7C408.574 354.42 408.754 355.3 408.754 356.34C408.754 357.12 408.614 357.83 408.334 358.47C408.054 359.11 407.674 359.665 407.194 360.135C406.714 360.605 406.144 360.98 405.484 361.26C404.824 361.54 404.104 361.72 403.324 361.8L409.534 371.91L406.894 371.91L401.014 361.98L397.414 361.98L397.414 371.91ZM397.414 360.12L401.164 360.12C402.904 360.12 404.244 359.805 405.184 359.175C406.124 358.545 406.594 357.6 406.594 356.34C406.594 355.64 406.464 355.05 406.204 354.57C405.944 354.09 405.584 353.7 405.124 353.4C404.664 353.1 404.104 352.88 403.444 352.74C402.784 352.6 402.054 352.53 401.254 352.53L397.414 352.53L397.414 360.12Z" fill-rule="evenodd"/>
<path clip-path="url(#TextBounds_2)" d="M422.224 350.67L429.274 350.67C430.594 350.67 431.919 350.89 433.249 351.33C434.579 351.77 435.779 352.435 436.849 353.325C437.919 354.215 438.784 355.325 439.444 356.655C440.104 357.985 440.434 359.53 440.434 361.29C440.434 363.07 440.104 364.62 439.444 365.94C438.784 367.26 437.919 368.365 436.849 369.255C435.779 370.145 434.579 370.81 433.249 371.25C431.919 371.69 430.594 371.91 429.274 371.91L422.224 371.91L422.224 350.67ZM424.384 369.99L428.674 369.99C430.274 369.99 431.669 369.74 432.859 369.24C434.049 368.74 435.034 368.085 435.814 367.275C436.594 366.465 437.179 365.54 437.569 364.5C437.959 363.46 438.154 362.39 438.154 361.29C438.154 360.19 437.959 359.12 437.569 358.08C437.179 357.04 436.594 356.115 435.814 355.305C435.034 354.495 434.049 353.84 432.859 353.34C431.669 352.84 430.274 352.59 428.674 352.59L424.384 352.59L424.384 369.99Z" fill-rule="evenodd"/>
</g>
</g>
</svg>
