<?xml version="1.0" encoding="UTF-8" standalone="no"?>
<!DOCTYPE svg PUBLIC "-//W3C//DTD SVG 1.1//EN" "http://www.w3.org/Graphics/SVG/1.1/DTD/svg11.dtd"
[
<!ATTLIST g
  xmlns:vectornator CDATA #FIXED "http://vectornator.io"
  vectornator:layerName CDATA #IMPLIED >
<!ATTLIST g
  xmlns:vectornator CDATA #FIXED "http://vectornator.io"
  vectornator:mask CDATA #IMPLIED >
<!ATTLIST text
  xmlns:vectornator CDATA #FIXED "http://vectornator.io"
  vectornator:width CDATA #IMPLIED >
<!ATTLIST text
  xmlns:vectornator CDATA #FIXED "http://vectornator.io"
  vectornator:text CDATA #IMPLIED >

<!ATTLIST path
  xmlns:vectornator CDATA #FIXED "http://vectornator.io"
  vectornator:blendMode CDATA #IMPLIED >
<!ATTLIST path
  xmlns:vectornator CDATA #FIXED "http://vectornator.io"
  vectornator:shadowColor CDATA #IMPLIED >
<!ATTLIST path
  xmlns:vectornator CDATA #FIXED "http://vectornator.io"
  vectornator:shadowOpacity CDATA #IMPLIED >
<!ATTLIST path
  xmlns:vectornator CDATA #FIXED "http://vectornator.io"
  vectornator:shadowRadius CDATA #IMPLIED >
<!ATTLIST path
  xmlns:vectornator CDATA #FIXED "http://vectornator.io"
  vectornator:shadowOffset CDATA #IMPLIED >
<!ATTLIST path
  xmlns:vectornator CDATA #FIXED "http://vectornator.io"
  vectornator:shadowAngle CDATA #IMPLIED >

<!ATTLIST image
  xmlns:vectornator CDATA #FIXED "http://vectornator.io"
  vectornator:blendMode CDATA #IMPLIED >
<!ATTLIST image
  xmlns:vectornator CDATA #FIXED "http://vectornator.io"
  vectornator:shadowColor CDATA #IMPLIED >
<!ATTLIST image
  xmlns:vectornator CDATA #FIXED "http://vectornator.io"
  vectornator:shadowOpacity CDATA #IMPLIED >
<!ATTLIST image
  xmlns:vectornator CDATA #FIXED "http://vectornator.io"
  vectornator:shadowRadius CDATA #IMPLIED >
<!ATTLIST image
  xmlns:vectornator CDATA #FIXED "http://vectornator.io"
  vectornator:shadowOffset CDATA #IMPLIED >
<!ATTLIST image
  xmlns:vectornator CDATA #FIXED "http://vectornator.io"
  vectornator:shadowAngle CDATA #IMPLIED >

<!ATTLIST g
  xmlns:vectornator CDATA #FIXED "http://vectornator.io"
  vectornator:blendMode CDATA #IMPLIED >
<!ATTLIST g
  xmlns:vectornator CDATA #FIXED "http://vectornator.io"
  vectornator:shadowColor CDATA #IMPLIED >
<!ATTLIST g
  xmlns:vectornator CDATA #FIXED "http://vectornator.io"
  vectornator:shadowOpacity CDATA #IMPLIED >
<!ATTLIST g
  xmlns:vectornator CDATA #FIXED "http://vectornator.io"
  vectornator:shadowRadius CDATA #IMPLIED >
<!ATTLIST g
  xmlns:vectornator CDATA #FIXED "http://vectornator.io"
  vectornator:shadowOffset CDATA #IMPLIED >
<!ATTLIST g
  xmlns:vectornator CDATA #FIXED "http://vectornator.io"
  vectornator:shadowAngle CDATA #IMPLIED >

<!ENTITY % SVG.filter.extra.content  "| feDropShadow" >
<!ELEMENT feDropShadow EMPTY>
<!ATTLIST feDropShadow
  xmlns:svg CDATA #FIXED "http://www.w3.org/Graphics/SVG/1.1/DTD/svg11.dtd"
  dx CDATA #IMPLIED>
<!ATTLIST feDropShadow
  xmlns:svg CDATA #FIXED "http://www.w3.org/Graphics/SVG/1.1/DTD/svg11.dtd"
  dy CDATA #IMPLIED>
<!ATTLIST feDropShadow
  xmlns:svg CDATA #FIXED "http://www.w3.org/Graphics/SVG/1.1/DTD/svg11.dtd"
  stdDeviation CDATA #IMPLIED>
<!ATTLIST feDropShadow
  xmlns:svg CDATA #FIXED "http://www.w3.org/Graphics/SVG/1.1/DTD/svg11.dtd"
  flood-opacity CDATA #IMPLIED>
<!ATTLIST feDropShadow
  xmlns:svg CDATA #FIXED "http://www.w3.org/Graphics/SVG/1.1/DTD/svg11.dtd"
  in CDATA #IMPLIED>
<!ATTLIST feDropShadow
  xmlns:svg CDATA #FIXED "http://www.w3.org/Graphics/SVG/1.1/DTD/svg11.dtd"
  result CDATA #IMPLIED>
<!ATTLIST feDropShadow
  xmlns:svg CDATA #FIXED "http://www.w3.org/Graphics/SVG/1.1/DTD/svg11.dtd"
  flood-color CDATA #IMPLIED>
]
>
<!-- Created with Vectornator (http://vectornator.io/) -->
<svg height="100%" stroke-miterlimit="10" style="fill-rule:nonzero;clip-rule:evenodd;stroke-linecap:round;stroke-linejoin:round;" version="1.1" viewBox="0 0 1108.01 1088.79" width="100%" xml:space="preserve" xmlns="http://www.w3.org/2000/svg" xmlns:vectornator="http://vectornator.io" xmlns:xlink="http://www.w3.org/1999/xlink">
<defs/>
<g id="Layer-2" vectornator:layerName="Layer 2"/>
<g id="Layer-1" vectornator:layerName="Layer 1">
<path d="M283.66 83.2895L850.387 83.4637L283.774 650.578L283.66 83.2895Z" fill="#7d9ec0" fill-rule="evenodd" opacity="1" stroke="none"/>
<path d="M850.217 650.706L283.49 650.532L850.102 83.418L850.217 650.706Z" fill="#fafafa" fill-rule="evenodd" opacity="1" stroke="none"/>
<path d="M315.723 733.932C314.441 732.14 312.797 730.699 310.79 729.607C308.784 728.515 306.359 727.969 303.517 727.969C302.068 727.969 300.591 728.193 299.086 728.641C297.581 729.089 296.215 729.775 294.989 730.699C293.763 731.622 292.774 732.784 292.021 734.184C291.269 735.584 290.893 737.236 290.893 739.14C290.893 741.043 291.255 742.611 291.979 743.843C292.704 745.075 293.665 746.125 294.864 746.993C296.062 747.861 297.428 748.575 298.96 749.134C300.493 749.694 302.096 750.254 303.768 750.814C305.83 751.486 307.906 752.214 309.996 752.998C312.086 753.782 313.967 754.804 315.639 756.064C317.311 757.324 318.677 758.919 319.736 760.851C320.795 762.783 321.324 765.233 321.324 768.2C321.324 771.168 320.753 773.73 319.611 775.885C318.468 778.041 316.991 779.819 315.18 781.219C313.368 782.619 311.306 783.655 308.993 784.326C306.68 784.998 304.353 785.334 302.012 785.334C300.228 785.334 298.445 785.152 296.661 784.788C294.878 784.424 293.178 783.879 291.561 783.151C289.945 782.423 288.44 781.499 287.047 780.379C285.653 779.259 284.427 777.971 283.368 776.515L288.552 772.652C289.834 774.78 291.631 776.557 293.944 777.985C296.257 779.413 298.974 780.127 302.096 780.127C303.6 780.127 305.133 779.889 306.694 779.413C308.254 778.937 309.662 778.209 310.916 777.229C312.17 776.249 313.201 775.046 314.009 773.618C314.817 772.19 315.221 770.524 315.221 768.62C315.221 766.549 314.817 764.827 314.009 763.455C313.201 762.083 312.128 760.935 310.79 760.011C309.453 759.087 307.92 758.317 306.192 757.702C304.464 757.086 302.653 756.47 300.758 755.854C298.807 755.238 296.884 754.538 294.989 753.754C293.094 752.97 291.394 751.948 289.889 750.688C288.385 749.428 287.172 747.875 286.253 746.027C285.333 744.179 284.873 741.911 284.873 739.224C284.873 736.368 285.444 733.904 286.587 731.832C287.73 729.761 289.221 728.053 291.06 726.709C292.899 725.365 294.933 724.385 297.163 723.769C299.392 723.153 301.594 722.845 303.768 722.845C307.781 722.845 311.208 723.559 314.051 724.987C316.893 726.415 319.039 728.109 320.488 730.069L315.723 733.932Z" fill="#7d9ec0" fill-rule="evenodd" opacity="1" stroke="none"/>
<path d="M419.336 778.447L451.022 778.447L451.022 783.823L413.317 783.823L413.317 724.357L450.019 724.357L450.019 729.733L419.336 729.733L419.336 750.226L448.012 750.226L448.012 755.518L419.336 755.518L419.336 778.447Z" fill="#7d9ec0" fill-rule="evenodd" opacity="1" stroke="none"/>
<path d="M560.07 776.011L560.237 776.011L579.466 724.357L585.903 724.357L563.247 783.823L556.893 783.823L534.32 724.357L540.841 724.357L560.07 776.011Z" fill="#7d9ec0" fill-rule="evenodd" opacity="1" stroke="none"/>
<path d="M679.15 778.447L710.836 778.447L710.836 783.823L673.13 783.823L673.13 724.357L709.833 724.357L709.833 729.733L679.15 729.733L679.15 750.226L707.826 750.226L707.826 755.518L679.15 755.518L679.15 778.447Z" fill="#7d9ec0" fill-rule="evenodd" opacity="1" stroke="none"/>
<path d="M843.71 775.004L843.878 775.004L843.878 724.357L849.897 724.357L849.897 783.823L842.373 783.823L807.928 732.672L807.761 732.672L807.761 783.823L801.741 783.823L801.741 724.357L809.266 724.357L843.71 775.004Z" fill="#7d9ec0" fill-rule="evenodd" opacity="1" stroke="none"/>
<path d="M289.416 899.796L283.972 899.796L283.972 840.336L316.256 840.336L316.256 845.711L289.416 845.711L289.416 866.37L314.366 866.37L314.366 871.661L289.416 871.661L289.416 899.796Z" fill="#fafafa" fill-rule="evenodd" opacity="1" stroke="none"/>
<path d="M412.261 870.066C412.261 874.601 411.556 878.772 410.144 882.579C408.733 886.386 406.78 889.676 404.285 892.447C401.79 895.219 398.841 897.388 395.439 898.956C392.036 900.524 388.344 901.307 384.362 901.307C380.38 901.307 376.688 900.524 373.286 898.956C369.883 897.388 366.935 895.219 364.44 892.447C361.945 889.676 359.991 886.386 358.58 882.579C357.169 878.772 356.463 874.601 356.463 870.066C356.463 865.531 357.169 861.359 358.58 857.552C359.991 853.745 361.945 850.456 364.44 847.684C366.935 844.913 369.883 842.743 373.286 841.175C376.688 839.608 380.38 838.824 384.362 838.824C388.344 838.824 392.036 839.608 395.439 841.175C398.841 842.743 401.79 844.913 404.285 847.684C406.78 850.456 408.733 853.745 410.144 857.552C411.556 861.359 412.261 865.531 412.261 870.066ZM406.515 870.066C406.515 866.594 406.011 863.291 405.003 860.156C403.995 857.02 402.533 854.263 400.618 851.883C398.703 849.504 396.371 847.614 393.624 846.214C390.877 844.815 387.79 844.115 384.362 844.115C380.935 844.115 377.847 844.815 375.1 846.214C372.353 847.614 370.022 849.504 368.107 851.883C366.191 854.263 364.73 857.02 363.721 860.156C362.713 863.291 362.209 866.594 362.209 870.066C362.209 873.537 362.713 876.84 363.721 879.976C364.73 883.111 366.191 885.854 368.107 888.206C370.022 890.558 372.353 892.433 375.1 893.833C377.847 895.233 380.935 895.932 384.362 895.932C387.79 895.932 390.877 895.233 393.624 893.833C396.371 892.433 398.703 890.558 400.618 888.206C402.533 885.854 403.995 883.111 405.003 879.976C406.011 876.84 406.515 873.537 406.515 870.066Z" fill="#fafafa" fill-rule="evenodd" opacity="1" stroke="none"/>
<path d="M461.919 899.796L456.475 899.796L456.475 840.336L472.202 840.336C474.823 840.336 477.255 840.616 479.498 841.175C481.741 841.735 483.681 842.645 485.32 843.905C486.958 845.165 488.231 846.802 489.138 848.818C490.045 850.834 490.499 853.297 490.499 856.208C490.499 858.392 490.146 860.38 489.44 862.171C488.735 863.963 487.777 865.517 486.567 866.832C485.357 868.148 483.921 869.198 482.258 869.982C480.594 870.766 478.78 871.269 476.814 871.493L492.465 899.796L485.811 899.796L470.992 871.997L461.919 871.997L461.919 899.796ZM461.919 866.79L471.37 866.79C475.755 866.79 479.132 865.908 481.501 864.145C483.871 862.381 485.055 859.736 485.055 856.208C485.055 854.249 484.727 852.597 484.072 851.253C483.417 849.91 482.51 848.818 481.35 847.978C480.191 847.138 478.78 846.522 477.116 846.13C475.453 845.739 473.613 845.543 471.597 845.543L461.919 845.543L461.919 866.79Z" fill="#fafafa" fill-rule="evenodd" opacity="1" stroke="none"/>
<path d="M547.566 891.481L547.717 891.481L561.1 840.336L567.602 840.336L580.984 891.481L581.136 891.481L594.216 840.336L599.962 840.336L584.16 899.796L577.809 899.796L564.351 848.734L564.2 848.734L550.741 899.796L544.39 899.796L528.588 840.336L534.335 840.336L547.566 891.481Z" fill="#fafafa" fill-rule="evenodd" opacity="1" stroke="none"/>
<path d="M639.715 899.796L633.742 899.796L656.878 840.336L662.17 840.336L685.155 899.796L679.107 899.796L673.209 884.175L645.537 884.175L639.715 899.796ZM647.578 878.632L671.168 878.632L659.373 847.054L647.578 878.632Z" fill="#fafafa" fill-rule="evenodd" opacity="1" stroke="none"/>
<path d="M731.335 899.796L725.891 899.796L725.891 840.336L741.618 840.336C744.239 840.336 746.671 840.616 748.914 841.175C751.157 841.735 753.097 842.645 754.735 843.905C756.374 845.165 757.646 846.802 758.554 848.818C759.461 850.834 759.915 853.297 759.915 856.208C759.915 858.392 759.562 860.38 758.856 862.171C758.15 863.963 757.193 865.517 755.983 866.832C754.773 868.148 753.337 869.198 751.673 869.982C750.01 870.766 748.195 871.269 746.23 871.493L761.88 899.796L755.227 899.796L740.408 871.997L731.335 871.997L731.335 899.796ZM731.335 866.79L740.786 866.79C745.171 866.79 748.548 865.908 750.917 864.145C753.286 862.381 754.471 859.736 754.471 856.208C754.471 854.249 754.143 852.597 753.488 851.253C752.833 849.91 751.925 848.818 750.766 847.978C749.607 847.138 748.195 846.522 746.532 846.13C744.869 845.739 743.029 845.543 741.013 845.543L731.335 845.543L731.335 866.79Z" fill="#fafafa" fill-rule="evenodd" opacity="1" stroke="none"/>
<path d="M804.053 840.336L821.821 840.336C825.147 840.336 828.487 840.952 831.839 842.183C835.191 843.415 838.215 845.277 840.912 847.768C843.608 850.26 845.788 853.367 847.452 857.09C849.115 860.814 849.947 865.139 849.947 870.066C849.947 875.049 849.115 879.388 847.452 883.083C845.788 886.778 843.608 889.872 840.912 892.363C838.215 894.855 835.191 896.716 831.839 897.948C828.487 899.18 825.147 899.796 821.821 899.796L804.053 899.796L804.053 840.336ZM809.497 894.421L820.308 894.421C824.341 894.421 827.857 893.721 830.856 892.321C833.855 890.921 836.337 889.088 838.303 886.82C840.269 884.553 841.743 881.963 842.726 879.052C843.709 876.14 844.2 873.145 844.2 870.066C844.2 866.986 843.709 863.991 842.726 861.079C841.743 858.168 840.269 855.579 838.303 853.311C836.337 851.043 833.855 849.21 830.856 847.81C827.857 846.41 824.341 845.711 820.308 845.711L809.497 845.711L809.497 894.421Z" fill="#fafafa" fill-rule="evenodd" opacity="1" stroke="none"/>
</g>
</svg>
