<?xml version="1.0" encoding="UTF-8" standalone="no"?>
<!DOCTYPE svg PUBLIC "-//W3C//DTD SVG 1.1//EN" "http://www.w3.org/Graphics/SVG/1.1/DTD/svg11.dtd"
[
<!ATTLIST g
  xmlns:vectornator CDATA #FIXED "http://vectornator.io"
  vectornator:layerName CDATA #IMPLIED >
<!ATTLIST g
  xmlns:vectornator CDATA #FIXED "http://vectornator.io"
  vectornator:mask CDATA #IMPLIED >
<!ATTLIST text
  xmlns:vectornator CDATA #FIXED "http://vectornator.io"
  vectornator:width CDATA #IMPLIED >

<!ATTLIST path
  xmlns:vectornator CDATA #FIXED "http://vectornator.io"
  vectornator:blendMode CDATA #IMPLIED >
<!ATTLIST path
  xmlns:vectornator CDATA #FIXED "http://vectornator.io"
  vectornator:shadowColor CDATA #IMPLIED >
<!ATTLIST path
  xmlns:vectornator CDATA #FIXED "http://vectornator.io"
  vectornator:shadowOpacity CDATA #IMPLIED >
<!ATTLIST path
  xmlns:vectornator CDATA #FIXED "http://vectornator.io"
  vectornator:shadowRadius CDATA #IMPLIED >
<!ATTLIST path
  xmlns:vectornator CDATA #FIXED "http://vectornator.io"
  vectornator:shadowOffset CDATA #IMPLIED >
<!ATTLIST path
  xmlns:vectornator CDATA #FIXED "http://vectornator.io"
  vectornator:shadowAngle CDATA #IMPLIED >

<!ATTLIST image
  xmlns:vectornator CDATA #FIXED "http://vectornator.io"
  vectornator:blendMode CDATA #IMPLIED >
<!ATTLIST image
  xmlns:vectornator CDATA #FIXED "http://vectornator.io"
  vectornator:shadowColor CDATA #IMPLIED >
<!ATTLIST image
  xmlns:vectornator CDATA #FIXED "http://vectornator.io"
  vectornator:shadowOpacity CDATA #IMPLIED >
<!ATTLIST image
  xmlns:vectornator CDATA #FIXED "http://vectornator.io"
  vectornator:shadowRadius CDATA #IMPLIED >
<!ATTLIST image
  xmlns:vectornator CDATA #FIXED "http://vectornator.io"
  vectornator:shadowOffset CDATA #IMPLIED >
<!ATTLIST image
  xmlns:vectornator CDATA #FIXED "http://vectornator.io"
  vectornator:shadowAngle CDATA #IMPLIED >

<!ATTLIST g
  xmlns:vectornator CDATA #FIXED "http://vectornator.io"
  vectornator:blendMode CDATA #IMPLIED >
<!ATTLIST g
  xmlns:vectornator CDATA #FIXED "http://vectornator.io"
  vectornator:shadowColor CDATA #IMPLIED >
<!ATTLIST g
  xmlns:vectornator CDATA #FIXED "http://vectornator.io"
  vectornator:shadowOpacity CDATA #IMPLIED >
<!ATTLIST g
  xmlns:vectornator CDATA #FIXED "http://vectornator.io"
  vectornator:shadowRadius CDATA #IMPLIED >
<!ATTLIST g
  xmlns:vectornator CDATA #FIXED "http://vectornator.io"
  vectornator:shadowOffset CDATA #IMPLIED >
<!ATTLIST g
  xmlns:vectornator CDATA #FIXED "http://vectornator.io"
  vectornator:shadowAngle CDATA #IMPLIED >

<!ENTITY % SVG.filter.extra.content  "| feDropShadow" >
<!ELEMENT feDropShadow EMPTY>
<!ATTLIST feDropShadow
  xmlns:svg CDATA #FIXED "http://www.w3.org/Graphics/SVG/1.1/DTD/svg11.dtd"
  dx CDATA #IMPLIED>
<!ATTLIST feDropShadow
  xmlns:svg CDATA #FIXED "http://www.w3.org/Graphics/SVG/1.1/DTD/svg11.dtd"
  dy CDATA #IMPLIED>
<!ATTLIST feDropShadow
  xmlns:svg CDATA #FIXED "http://www.w3.org/Graphics/SVG/1.1/DTD/svg11.dtd"
  stdDeviation CDATA #IMPLIED>
<!ATTLIST feDropShadow
  xmlns:svg CDATA #FIXED "http://www.w3.org/Graphics/SVG/1.1/DTD/svg11.dtd"
  flood-opacity CDATA #IMPLIED>
<!ATTLIST feDropShadow
  xmlns:svg CDATA #FIXED "http://www.w3.org/Graphics/SVG/1.1/DTD/svg11.dtd"
  in CDATA #IMPLIED>
<!ATTLIST feDropShadow
  xmlns:svg CDATA #FIXED "http://www.w3.org/Graphics/SVG/1.1/DTD/svg11.dtd"
  result CDATA #IMPLIED>
<!ATTLIST feDropShadow
  xmlns:svg CDATA #FIXED "http://www.w3.org/Graphics/SVG/1.1/DTD/svg11.dtd"
  flood-color CDATA #IMPLIED>
]
>
<!-- Created with Vectornator (http://vectornator.io/) -->
<svg height="100%" stroke-miterlimit="10" style="fill-rule:nonzero;clip-rule:evenodd;stroke-linecap:round;stroke-linejoin:round;" version="1.1" viewBox="0 0 751.275 1088.79" width="100%" xml:space="preserve" xmlns="http://www.w3.org/2000/svg" xmlns:vectornator="http://vectornator.io" xmlns:xlink="http://www.w3.org/1999/xlink">
<defs/>
<g id="Layer-2" vectornator:layerName="Layer 2"/>
<g id="Layer-1" vectornator:layerName="Layer 1">
<path d="M5.20113 8.54454L744.632 8.77181L5.35116 748.707L5.20113 8.54454Z" fill="#7d9ec0" fill-rule="evenodd" opacity="1" stroke="none"/>
<path d="M744.411 748.875L4.97946 748.647L744.261 8.71226L744.411 748.875Z" fill="#fafafa" fill-rule="evenodd" opacity="1" stroke="none"/>
<path d="M47.0355 857.463C45.3629 855.125 43.2177 853.244 40.5997 851.819C37.9818 850.394 34.8184 849.682 31.1097 849.682C29.219 849.682 27.2919 849.974 25.3284 850.559C23.3649 851.143 21.5833 852.038 19.9834 853.244C18.3836 854.449 17.0928 855.965 16.1111 857.791C15.1293 859.618 14.6385 861.773 14.6385 864.257C14.6385 866.741 15.1112 868.787 16.0565 870.394C17.0019 872.001 18.2563 873.371 19.8198 874.503C21.3833 875.636 23.165 876.567 25.1648 877.298C27.1646 878.028 29.2553 878.759 31.4369 879.489C34.1276 880.366 36.8364 881.316 39.5635 882.339C42.2905 883.361 44.7448 884.695 46.9264 886.339C49.1081 887.982 50.8897 890.064 52.2714 892.585C53.6531 895.105 54.3439 898.302 54.3439 902.174C54.3439 906.046 53.5986 909.388 52.1078 912.201C50.617 915.013 48.6899 917.333 46.3265 919.159C43.9631 920.986 41.2724 922.337 38.2545 923.214C35.2366 924.091 32.2005 924.529 29.1462 924.529C26.8192 924.529 24.4921 924.292 22.1651 923.817C19.838 923.342 17.62 922.63 15.5111 921.68C13.4022 920.73 11.4388 919.525 9.62074 918.064C7.80273 916.602 6.20287 914.922 4.82118 913.023L11.5842 907.982C13.2568 910.758 15.602 913.077 18.6199 914.94C21.6378 916.803 25.183 917.735 29.2553 917.735C31.2188 917.735 33.2186 917.424 35.2548 916.803C37.2909 916.182 39.1271 915.233 40.7634 913.954C42.3996 912.676 43.7449 911.105 44.7994 909.242C45.8538 907.379 46.381 905.205 46.381 902.722C46.381 900.018 45.8538 897.772 44.7994 895.982C43.7449 894.192 42.345 892.694 40.5997 891.489C38.8544 890.284 36.8546 889.279 34.6003 888.475C32.3459 887.672 29.9825 886.868 27.51 886.065C24.9648 885.261 22.4559 884.348 19.9834 883.325C17.5109 882.302 15.293 880.969 13.3295 879.325C11.366 877.681 9.78436 875.654 8.58447 873.243C7.38458 870.832 6.78464 867.873 6.78464 864.367C6.78464 860.641 7.53002 857.426 9.0208 854.723C10.5116 852.02 12.4568 849.792 14.8566 848.038C17.2564 846.285 19.9107 845.007 22.8195 844.203C25.7284 843.399 28.6008 842.997 31.4369 842.997C36.6728 842.997 41.1451 843.929 44.8539 845.792C48.5627 847.655 51.3624 849.865 53.2531 852.422L47.0355 857.463Z" fill="#7d9ec0" fill-rule="evenodd" opacity="1" stroke="none"/>
<path d="M182.224 915.543L223.566 915.543L223.566 922.557L174.37 922.557L174.37 844.97L222.257 844.97L222.257 851.983L182.224 851.983L182.224 878.722L219.639 878.722L219.639 885.626L182.224 885.626L182.224 915.543Z" fill="#7d9ec0" fill-rule="evenodd" opacity="1" stroke="none"/>
<path d="M365.844 912.365L366.062 912.365L391.151 844.97L399.55 844.97L369.989 922.557L361.699 922.557L332.247 844.97L340.756 844.97L365.844 912.365Z" fill="#7d9ec0" fill-rule="evenodd" opacity="1" stroke="none"/>
<path d="M521.212 915.543L562.554 915.543L562.554 922.557L513.359 922.557L513.359 844.97L561.245 844.97L561.245 851.983L521.212 851.983L521.212 878.722L558.627 878.722L558.627 885.626L521.212 885.626L521.212 915.543Z" fill="#7d9ec0" fill-rule="evenodd" opacity="1" stroke="none"/>
<path d="M735.921 911.05L736.139 911.05L736.139 844.97L743.993 844.97L743.993 922.557L734.176 922.557L689.234 855.819L689.016 855.819L689.016 922.557L681.162 922.557L681.162 844.97L690.979 844.97L735.921 911.05Z" fill="#7d9ec0" fill-rule="evenodd" opacity="1" stroke="none"/>
<path d="M12.7115 1073.87L5.60885 1073.87L5.60885 996.291L47.7315 996.291L47.7315 1003.3L12.7115 1003.3L12.7115 1030.26L45.2653 1030.26L45.2653 1037.16L12.7115 1037.16L12.7115 1073.87Z" fill="#fafafa" fill-rule="evenodd" opacity="1" stroke="none"/>
<path d="M172.993 1035.08C172.993 1041 172.072 1046.44 170.231 1051.41C168.389 1056.38 165.841 1060.67 162.586 1064.28C159.33 1067.9 155.483 1070.73 151.044 1072.78C146.605 1074.82 141.787 1075.84 136.592 1075.84C131.396 1075.84 126.579 1074.82 122.14 1072.78C117.701 1070.73 113.854 1067.9 110.598 1064.28C107.343 1060.67 104.794 1056.38 102.953 1051.41C101.111 1046.44 100.191 1041 100.191 1035.08C100.191 1029.16 101.111 1023.72 102.953 1018.75C104.794 1013.79 107.343 1009.5 110.598 1005.88C113.854 1002.26 117.701 999.432 122.14 997.387C126.579 995.342 131.396 994.319 136.592 994.319C141.787 994.319 146.605 995.342 151.044 997.387C155.483 999.432 159.33 1002.26 162.586 1005.88C165.841 1009.5 168.389 1013.79 170.231 1018.75C172.072 1023.72 172.993 1029.16 172.993 1035.08ZM165.496 1035.08C165.496 1030.55 164.838 1026.24 163.523 1022.15C162.207 1018.06 160.3 1014.46 157.801 1011.36C155.302 1008.25 152.26 1005.79 148.676 1003.96C145.092 1002.14 141.064 1001.22 136.592 1001.22C132.12 1001.22 128.092 1002.14 124.507 1003.96C120.923 1005.79 117.882 1008.25 115.383 1011.36C112.883 1014.46 110.976 1018.06 109.661 1022.15C108.346 1026.24 107.688 1030.55 107.688 1035.08C107.688 1039.61 108.346 1043.92 109.661 1048.01C110.976 1052.1 112.883 1055.68 115.383 1058.75C117.882 1061.82 120.923 1064.26 124.507 1066.09C128.092 1067.92 132.12 1068.83 136.592 1068.83C141.064 1068.83 145.092 1067.92 148.676 1066.09C152.26 1064.26 155.302 1061.82 157.801 1058.75C160.3 1055.68 162.207 1052.1 163.523 1048.01C164.838 1043.92 165.496 1039.61 165.496 1035.08Z" fill="#fafafa" fill-rule="evenodd" opacity="1" stroke="none"/>
<path d="M237.783 1073.87L230.681 1073.87L230.681 996.291L251.199 996.291C254.619 996.291 257.792 996.657 260.719 997.387C263.645 998.118 266.177 999.305 268.315 1000.95C270.452 1002.59 272.113 1004.73 273.296 1007.36C274.48 1009.99 275.072 1013.2 275.072 1017C275.072 1019.85 274.612 1022.44 273.691 1024.78C272.77 1027.12 271.521 1029.15 269.942 1030.86C268.364 1032.58 266.49 1033.95 264.32 1034.97C262.149 1035.99 259.782 1036.65 257.217 1036.94L277.637 1073.87L268.956 1073.87L249.621 1037.6L237.783 1037.6L237.783 1073.87ZM237.783 1030.81L250.114 1030.81C255.836 1030.81 260.242 1029.66 263.333 1027.36C266.424 1025.05 267.969 1021.6 267.969 1017C267.969 1014.44 267.542 1012.29 266.687 1010.54C265.832 1008.78 264.648 1007.36 263.136 1006.26C261.623 1005.17 259.782 1004.36 257.611 1003.85C255.441 1003.34 253.041 1003.09 250.41 1003.09L237.783 1003.09L237.783 1030.81Z" fill="#fafafa" fill-rule="evenodd" opacity="1" stroke="none"/>
<path d="M349.53 1063.02L349.727 1063.02L367.188 996.291L375.672 996.291L393.132 1063.02L393.33 1063.02L410.396 996.291L417.893 996.291L397.275 1073.87L388.989 1073.87L371.43 1007.25L371.232 1007.25L353.673 1073.87L345.387 1073.87L324.769 996.291L332.267 996.291L349.53 1063.02Z" fill="#fafafa" fill-rule="evenodd" opacity="1" stroke="none"/>
<path d="M469.76 1073.87L461.967 1073.87L492.153 996.291L499.059 996.291L529.048 1073.87L521.156 1073.87L513.461 1053.49L477.356 1053.49L469.76 1073.87ZM480.02 1046.26L510.798 1046.26L495.409 1005.06L480.02 1046.26Z" fill="#fafafa" fill-rule="evenodd" opacity="1" stroke="none"/>
<path d="M589.3 1073.87L582.198 1073.87L582.198 996.291L602.716 996.291C606.136 996.291 609.309 996.657 612.236 997.387C615.162 998.118 617.694 999.305 619.832 1000.95C621.969 1002.59 623.63 1004.73 624.813 1007.36C625.997 1009.99 626.589 1013.2 626.589 1017C626.589 1019.85 626.129 1022.44 625.208 1024.78C624.287 1027.12 623.038 1029.15 621.459 1030.86C619.881 1032.58 618.007 1033.95 615.836 1034.97C613.666 1035.99 611.299 1036.65 608.734 1036.94L629.154 1073.87L620.473 1073.87L601.138 1037.6L589.3 1037.6L589.3 1073.87ZM589.3 1030.81L601.631 1030.81C607.353 1030.81 611.759 1029.66 614.85 1027.36C617.941 1025.05 619.486 1021.6 619.486 1017C619.486 1014.44 619.059 1012.29 618.204 1010.54C617.349 1008.78 616.165 1007.36 614.653 1006.26C613.14 1005.17 611.299 1004.36 609.128 1003.85C606.958 1003.34 604.558 1003.09 601.927 1003.09L589.3 1003.09L589.3 1030.81Z" fill="#fafafa" fill-rule="evenodd" opacity="1" stroke="none"/>
<path d="M684.178 996.291L707.36 996.291C711.701 996.291 716.058 997.095 720.431 998.702C724.805 1000.31 728.75 1002.74 732.269 1005.99C735.787 1009.24 738.632 1013.29 740.802 1018.15C742.972 1023.01 744.057 1028.65 744.057 1035.08C744.057 1041.58 742.972 1047.24 740.802 1052.07C738.632 1056.89 735.787 1060.92 732.269 1064.17C728.75 1067.42 724.805 1069.85 720.431 1071.46C716.058 1073.07 711.701 1073.87 707.36 1073.87L684.178 1073.87L684.178 996.291ZM691.281 1066.86L705.387 1066.86C710.649 1066.86 715.236 1065.95 719.149 1064.12C723.062 1062.29 726.301 1059.9 728.866 1056.94C731.43 1053.98 733.354 1050.6 734.636 1046.81C735.919 1043.01 736.56 1039.1 736.56 1035.08C736.56 1031.06 735.919 1027.16 734.636 1023.36C733.354 1019.56 731.43 1016.18 728.866 1013.22C726.301 1010.26 723.062 1007.87 719.149 1006.04C715.236 1004.22 710.649 1003.3 705.387 1003.3L691.281 1003.3L691.281 1066.86Z" fill="#fafafa" fill-rule="evenodd" opacity="1" stroke="none"/>
</g>
</svg>
